<svg width="33" height="36" viewBox="0 0 33 36" fill="none" xmlns="http://www.w3.org/2000/svg">
<path d="M16.4445 21.6724L12.0662 25.8245C10.9151 26.9371 10.2778 28.3873 10.2778 29.9369C10.2778 33.1554 13.0528 35.7778 16.4445 35.7778C19.8361 35.7778 22.6111 33.1554 22.6111 29.9369C22.6111 28.3873 21.9739 26.9172 20.8228 25.8245L16.4445 21.6724Z" fill="#FAFF00"/>
<path d="M24.6666 7.96428L23.7621 9.05696C21.3366 11.9774 16.4444 10.3284 16.4444 6.57361V0.0175781C16.4444 0.0175781 0 7.96428 0 21.871C0 27.6721 3.20665 32.7381 7.99608 35.4996C6.84497 33.9301 6.16664 32.0031 6.16664 29.9369C6.16664 27.3145 7.23553 24.851 9.1883 22.9836L16.4444 16.1097L23.7005 23.0034C25.6532 24.851 26.7221 27.3145 26.7221 29.9568C26.7221 31.9832 26.0849 33.8507 24.9749 35.4202C28.8599 33.1355 31.7377 29.3409 32.601 24.8908C33.9577 17.8381 30.4016 11.1827 24.6666 7.96428Z" fill="#FAFF00"/>
</svg>
